<svg enable-background="new 0 0 350 350" viewBox="0 0 350 350" xmlns="http://www.w3.org/2000/svg"><path d="m276.646 95.979c-8.549 22.295-24.311 54.441-50.844 80.975-12.215 12.214-26.438 23.07-42.498 32.471-.287.143-.566.305-.83.488-8.597 4.984-17.718 9.554-27.337 13.691l-28.74-28.742c4.139-9.62 8.708-18.742 13.693-27.341.182-.262.34-.536.482-.82 9.4-16.063 20.258-30.288 32.475-42.505 26.532-26.532 58.679-42.294 80.974-50.843 13.547-5.196 25.209-8.436 32.918-10.294-1.857 7.711-5.097 19.373-10.293 32.92z" fill="#88e5d9"/><path d="m262.732 70.178c-1.93 7.068-4.676 15.934-8.459 25.801-8.551 22.295-24.312 54.441-50.846 80.975-12.215 12.214-26.436 23.07-42.497 32.471-.287.143-.566.305-.83.488-3.922 2.273-7.959 4.457-12.097 6.557l7.134 7.135c9.619-4.138 18.74-8.707 27.337-13.691.264-.184.543-.345.83-.488 16.061-9.4 30.283-20.257 42.498-32.471 26.533-26.534 42.295-58.68 50.844-80.975 5.195-13.547 8.435-25.209 10.293-32.92-6 1.445-14.392 3.727-24.207 7.118z" fill="#69ccbe"/><path d="m222.519 116.948c-2.812 0-5.459 1.096-7.447 3.085-1.99 1.989-3.086 4.635-3.086 7.447 0 2.814 1.096 5.459 3.086 7.447 1.988 1.99 4.633 3.086 7.447 3.087 2.814 0 5.457-1.097 7.447-3.087 4.107-4.106 4.107-10.788 0-14.895-1.99-1.99-4.634-3.084-7.447-3.084z" fill="#ff54a4"/><g fill="#041c3f"><path d="m239.543 110.457c-4.547-4.548-10.594-7.052-17.023-7.052s-12.477 2.504-17.023 7.052c-4.547 4.547-7.051 10.593-7.051 17.023 0 6.431 2.504 12.476 7.051 17.024 4.547 4.547 10.592 7.05 17.021 7.051h.002c6.43 0 12.477-2.504 17.023-7.051 4.547-4.548 7.051-10.594 7.051-17.024s-2.504-12.476-7.051-17.023zm-9.576 24.47c-1.99 1.99-4.633 3.087-7.447 3.087-2.814-.001-5.459-1.097-7.447-3.087-1.99-1.988-3.086-4.633-3.086-7.447 0-2.812 1.096-5.458 3.086-7.447 1.988-1.989 4.635-3.085 7.447-3.085s5.457 1.095 7.447 3.085c4.107 4.106 4.107 10.788 0 14.894z"/><path d="m54.28 256.221c-1.732 0-3.465-.66-4.787-1.982-2.645-2.645-2.645-6.933 0-9.576l39.152-39.153c2.645-2.645 6.932-2.645 9.576 0s2.644 6.933 0 9.577l-39.153 39.152c-1.322 1.321-3.054 1.982-4.788 1.982z"/><path d="m63.035 293.737c-1.733 0-3.466-.661-4.788-1.983-2.645-2.645-2.645-6.931 0-9.575l40.81-40.81c2.645-2.645 6.932-2.645 9.575 0 2.645 2.645 2.645 6.932 0 9.576l-40.809 40.809c-1.322 1.322-3.056 1.983-4.788 1.983z"/><path d="m100.551 302.491c-1.733 0-3.466-.66-4.788-1.982-2.645-2.645-2.645-6.932 0-9.576l39.153-39.154c2.644-2.643 6.932-2.644 9.575 0 2.645 2.645 2.645 6.933 0 9.577l-39.152 39.153c-1.323 1.321-3.055 1.982-4.788 1.982z"/></g><path d="m88.636 165.706 29.129-29.034 31.34-6.102c-6.797 8.361-13.102 17.385-18.891 27.041z" fill="#9788e2"/><path d="m117.765 145.965 23.027-4.482c2.685-3.751 5.453-7.394 8.312-10.912l-31.34 6.102-29.129 29.034 11.587-2.255z" fill="#7c71cc"/><path d="m184.293 261.365 8.094-41.578c9.658-5.788 18.68-12.093 27.041-18.891l-6.102 31.34z" fill="#9788e2"/><path d="m300.508 49.493c-1.537-1.537-3.721-2.244-5.863-1.898-.787.128-19.555 3.21-45.129 12.981-15.004 5.731-29.258 12.596-42.369 20.402-16.1 9.585-30.512 20.633-42.859 32.84l-51.136 9.955c-1.32.257-2.533.902-3.486 1.851l-46.328 46.18c-2.111 2.104-2.598 5.339-1.201 7.971 1.19 2.241 3.51 3.596 5.979 3.596.43 0 .863-.041 1.297-.124l52.255-10.174c-3.401 6.674-6.584 13.603-9.538 20.784-1.038 2.528-.457 5.432 1.475 7.364l12.801 12.801-11.893 11.893c-2.645 2.645-2.645 6.931 0 9.575 1.322 1.322 3.055 1.983 4.789 1.983 1.732 0 3.465-.661 4.787-1.982l11.893-11.894 12.801 12.802c1.296 1.294 3.027 1.983 4.79 1.983.866 0 1.741-.167 2.573-.51 7.182-2.953 14.11-6.136 20.782-9.536l-10.171 52.255c-.569 2.925.84 5.878 3.471 7.274 1.003.532 2.092.791 3.174.791 1.758 0 3.495-.685 4.796-1.992l46.18-46.328c.949-.952 1.594-2.166 1.852-3.486l9.953-51.136c12.207-12.349 23.256-26.759 32.842-42.86 7.805-13.112 14.67-27.366 20.402-42.369 9.77-25.576 12.853-44.342 12.98-45.129.343-2.145-.364-4.326-1.899-5.863zm-211.872 116.213 29.129-29.034 31.34-6.102c-6.797 8.361-13.102 17.385-18.891 27.041zm124.69 66.53-29.033 29.129 8.094-41.578c9.658-5.788 18.68-12.093 27.041-18.891zm63.32-136.257c-8.549 22.295-24.311 54.441-50.844 80.975-12.215 12.214-26.438 23.07-42.498 32.471-.287.143-.566.305-.83.488-8.597 4.984-17.718 9.554-27.337 13.691l-9.582-9.583 19.342-19.341c2.643-2.645 2.643-6.932 0-9.576-2.645-2.645-6.932-2.644-9.576 0l-19.342 19.341-9.582-9.583c4.139-9.62 8.708-18.742 13.693-27.341.182-.262.34-.536.482-.82 9.4-16.063 20.258-30.288 32.475-42.505 26.532-26.532 58.679-42.294 80.974-50.843 13.547-5.196 25.209-8.436 32.918-10.294-1.857 7.711-5.097 19.373-10.293 32.92z" fill="#041c3f"/><path d="m210.672 207.648-4.787 24.588-19.785 19.851-1.807 9.278 29.033-29.129 6.102-31.34c-2.84 2.31-5.764 4.557-8.756 6.752z" fill="#7c71cc"/></svg>